HIERARCHY
ROOT Hips
{
	OFFSET 0.000000 0.000000 0.000000
	CHANNELS 6 Xposition Yposition Zposition Xrotation Yrotation Zrotation
	JOINT LeftUpLeg_virtual
	{
		OFFSET 0.000000 0.000000 0.000000
		CHANNELS 3 Xrotation Yrotation Zrotation
		JOINT LeftUpLeg
		{
			OFFSET 13.026900 -6.336304 -1.092800
			CHANNELS 3 Xrotation Yrotation Zrotation
			JOINT LeftLeg
			{
				OFFSET 0.524474 -46.096886 9.782700
				CHANNELS 3 Xrotation Yrotation Zrotation
				JOINT LeftFoot
				{
					OFFSET -0.524474 -53.427422 -12.948200
					CHANNELS 3 Xrotation Yrotation Zrotation
					JOINT LeftToeBase
					{
						OFFSET 0.192200 -14.009700 16.364100
						CHANNELS 3 Xrotation Yrotation Zrotation
						JOINT LeftToe_End
						{
							OFFSET -1.784700 -0.561700 9.474800
							CHANNELS 3 Xrotation Yrotation Zrotation
							End Site
							{
								OFFSET 0 0 0
							}
						}
					}
				}
			}
		}
	}
	JOINT RightUpLeg_virtual
	{
		OFFSET 0.000000 0.000000 0.000000
		CHANNELS 3 Xrotation Yrotation Zrotation
		JOINT RightUpLeg
		{
			OFFSET -12.883000 -6.336304 -1.092800
			CHANNELS 3 Xrotation Yrotation Zrotation
			JOINT RightLeg
			{
				OFFSET -0.524587 -46.096825 9.782800
				CHANNELS 3 Xrotation Yrotation Zrotation
				JOINT RightFoot
				{
					OFFSET 0.524587 -53.427383 -12.948300
					CHANNELS 3 Xrotation Yrotation Zrotation
					JOINT RightToeBase
					{
						OFFSET -0.192200 -14.009700 16.364100
						CHANNELS 3 Xrotation Yrotation Zrotation
						JOINT RightToe_End
						{
							OFFSET 1.784700 -0.561700 9.474800
							CHANNELS 3 Xrotation Yrotation Zrotation
							End Site
							{
								OFFSET 0 0 0
							}
						}
					}
				}
			}
		}
	}
	JOINT Spine_virtual
	{
		OFFSET 0.000000 0.000000 0.000000
		CHANNELS 3 Xrotation Yrotation Zrotation
		JOINT Spine
		{
			OFFSET 0.072000 7.257294 -0.789700
			CHANNELS 3 Xrotation Yrotation Zrotation
			JOINT Spine1
			{
				OFFSET 0.000000 12.508769 -0.658067
				CHANNELS 3 Xrotation Yrotation Zrotation
				JOINT Spine1_split
				{
					OFFSET 0.000000 12.508769 -0.658067
					CHANNELS 3 Xrotation Yrotation Zrotation
					JOINT Spine2
					{
						OFFSET 0.000000 12.508769 -0.658067
						CHANNELS 3 Xrotation Yrotation Zrotation
						JOINT Neck_virtual
						{
							OFFSET 0.000000 0.000000 0.000000
							CHANNELS 3 Xrotation Yrotation Zrotation
							JOINT Neck
							{
								OFFSET 0.000000 14.033295 7.520400
								CHANNELS 3 Xrotation Yrotation Zrotation
								JOINT Head
								{
									OFFSET 0.000000 8.198502 5.703100
									CHANNELS 3 Xrotation Yrotation Zrotation
									JOINT HeadTop_End
									{
										OFFSET 0.000000 17.760803 13.332701
										CHANNELS 3 Xrotation Yrotation Zrotation
										End Site
										{
											OFFSET 0 0 0
										}
									}
								}
							}
						}
						JOINT LeftShoulder_virtual
						{
							OFFSET 0.000000 0.000000 0.000000
							CHANNELS 3 Xrotation Yrotation Zrotation
							JOINT LeftShoulder
							{
								OFFSET 6.292450 5.785301 -0.669000
								CHANNELS 3 Xrotation Yrotation Zrotation
								JOINT LeftShoulder_split
								{
									OFFSET 6.292450 5.785301 -0.669000
									CHANNELS 3 Xrotation Yrotation Zrotation
									JOINT LeftArm
									{
										OFFSET 13.907140 -6.093903 1.965100
										CHANNELS 3 Xrotation Yrotation Zrotation
										JOINT LeftForeArm
										{
											OFFSET 34.140198 0.000000 0.000000
											CHANNELS 3 Xrotation Yrotation Zrotation
											JOINT LeftHand
											{
												OFFSET 40.960209 0.000000 0.000000
												CHANNELS 3 Xrotation Yrotation Zrotation
												End Site
												{
													OFFSET 0 0 0
												}
											}
										}
									}
								}
							}
						}
						JOINT RightShoulder_virtual
						{
							OFFSET 0.000000 0.000000 0.000000
							CHANNELS 3 Xrotation Yrotation Zrotation
							JOINT RightShoulder
							{
								OFFSET -6.292450 5.785301 -0.669000
								CHANNELS 3 Xrotation Yrotation Zrotation
								JOINT RightShoulder_split
								{
									OFFSET -6.292450 5.785301 -0.669000
									CHANNELS 3 Xrotation Yrotation Zrotation
									JOINT RightArm
									{
										OFFSET -13.907140 -6.093903 1.965100
										CHANNELS 3 Xrotation Yrotation Zrotation
										JOINT RightForeArm
										{
											OFFSET -34.140198 0.000000 0.000000
											CHANNELS 3 Xrotation Yrotation Zrotation
											JOINT RightHand
											{
												OFFSET -40.960209 0.000000 0.000000
												CHANNELS 3 Xrotation Yrotation Zrotation
												End Site
												{
													OFFSET 0 0 0
												}
											}
										}
									}
								}
							}
						}
					}
				}
			}
		}
	}
}
MOTION
Frames: 5
Frame Time: 0.03333333
3.883924 100.654121 6.197369 0.000000 0.000000 0.000000 5.463889 -38.378840 4.982953 -58.669078 7.187578 17.654253 31.445064 -17.994058 -1.390395 6.273750 -9.248482 -11.556637 -7.700252 0.324643 -0.697077 0.000000 0.000000 0.000000 3.138747 -33.867011 4.632446 -25.811553 1.339283 -29.972643 24.793564 -5.635250 0.134818 -13.808249 -18.951352 28.674364 7.122945 -2.851087 2.797660 0.000000 0.000000 0.000000 1.213439 -35.053760 2.270411 22.635435 -1.665380 -6.310310 6.190331 -1.946635 1.232446 4.695810 -19.443571 6.787476 0.000000 0.000000 0.000000 7.043219 -0.910295 -0.822187 16.729213 11.125711 14.992388 -34.081773 27.081034 20.503217 0.000000 0.000000 0.000000 8.524267 -1.417253 0.033687 -1.122732 -12.639122 -19.696672 -2.171972 -1.943430 -2.114119 -38.890185 30.678385 -14.817347 3.973581 -17.465490 -4.801565 0.000000 0.000000 0.000000 6.554767 -1.204580 -0.269472 -0.340226 -13.692063 23.715383 -12.779387 -3.597685 0.821442 17.552642 15.499458 34.689462 4.835147 52.813038 9.234051 0.000000 0.000000 0.000000 
1.015913 101.847763 5.635788 0.000000 0.000000 0.000000 5.825194 -34.786208 5.305957 -57.814252 11.618772 17.858861 31.850210 -19.380233 -1.684346 9.369445 -10.241000 -10.128564 -8.839717 -0.009160 -0.098348 0.000000 0.000000 0.000000 3.160913 -30.465574 5.248719 -22.461960 2.384511 -25.722219 30.692336 -6.975693 0.259047 -16.451906 -17.501426 24.151549 8.612944 -2.390241 3.543343 0.000000 0.000000 0.000000 0.501810 -31.812467 3.515071 20.453480 -1.504312 -6.844943 6.292462 -1.429664 1.507712 4.606239 -12.916298 6.305915 0.000000 0.000000 0.000000 5.869303 -0.615958 -0.575834 19.419495 10.465930 13.593235 -31.937548 25.491482 20.452373 0.000000 0.000000 0.000000 7.881249 -0.827583 0.109787 -0.575713 -9.992788 -19.752596 -1.071174 -0.997742 -1.020991 -42.056289 29.920965 -13.549185 2.431092 -24.469892 -5.460664 0.000000 0.000000 0.000000 6.136565 -0.780006 -0.197165 -1.384943 -11.030125 23.937436 -13.307083 0.225928 1.273101 15.958785 16.750870 35.819117 5.781323 52.315527 8.917837 0.000000 0.000000 0.000000 
-2.851038 103.724854 5.129440 0.000000 0.000000 0.000000 5.646889 -25.200871 6.276163 -55.114439 16.468004 15.302764 28.185295 -20.988278 -2.868299 16.412731 -12.650405 -8.313396 -9.508844 -0.536220 0.984816 0.000000 0.000000 0.000000 3.179598 -22.269943 6.633687 -16.903671 4.867028 -20.789247 39.678638 -4.947968 -0.292711 -11.841715 -11.521503 26.304018 -6.972015 -1.872764 3.029216 0.000000 0.000000 0.000000 0.724001 -23.109708 5.786215 16.840871 -0.610199 -7.083987 5.349370 0.043344 2.350761 4.911848 -9.182553 4.375360 0.000000 0.000000 0.000000 3.783080 0.787120 0.414422 23.906101 9.475561 11.469143 -24.992144 21.524685 18.159979 0.000000 0.000000 0.000000 6.163313 0.954372 0.938436 0.063506 -6.160295 -18.871019 -0.122529 -0.060756 -0.128421 -40.261390 26.209022 -13.998791 4.113525 -34.537651 -3.325279 0.000000 0.000000 0.000000 4.816689 0.879303 0.679570 -2.113745 -8.186950 24.786825 -12.306438 2.079584 0.282067 14.193365 17.311681 35.216988 10.271800 50.191529 5.810589 0.000000 0.000000 0.000000 
-6.751923 105.521057 5.320927 0.000000 0.000000 0.000000 4.815417 -12.462694 7.601243 -50.518681 20.207238 10.179354 21.717157 -21.672790 -4.506680 25.183725 -14.245960 -4.913618 -11.514834 -1.209533 2.525849 0.000000 0.000000 0.000000 3.085820 -10.743364 8.199339 -8.508050 8.315807 -15.246422 46.236225 -1.556512 -2.052940 -4.990128 -2.472448 29.690952 -34.354646 -1.161899 2.495523 0.000000 0.000000 0.000000 0.901127 -10.994359 8.352031 12.408844 0.875856 -6.798825 3.532695 2.213988 3.464652 4.514452 -6.710990 2.140766 0.000000 0.000000 0.000000 1.159314 2.985370 1.850935 28.694386 8.665025 9.036493 -15.575271 15.677953 15.045911 0.000000 0.000000 0.000000 3.651174 3.496709 2.107321 0.501251 -1.879265 -17.264683 0.941585 1.109781 0.834599 -35.869561 18.765619 -15.317684 8.706879 -40.856952 1.871824 0.000000 0.000000 0.000000 2.793284 3.391766 1.987374 -2.527672 -5.707041 25.670658 -9.986955 1.570411 -1.079060 13.279344 16.403625 32.587826 16.571934 45.846613 1.403357 0.000000 0.000000 0.000000 
-10.070073 106.870590 5.575966 0.000000 0.000000 0.000000 3.390309 1.134323 9.349849 -44.271667 21.562750 2.932715 14.733755 -21.345752 -5.565913 31.749871 -13.352368 -0.293367 -14.693555 -1.841410 3.892878 0.000000 0.000000 0.000000 2.067205 1.751195 9.391033 1.451232 11.215581 -9.417599 47.752940 -0.161821 -3.826359 1.797110 6.104194 28.354875 -57.633642 -0.388550 3.033632 0.000000 0.000000 0.000000 0.583641 2.747849 10.597952 7.882883 2.671569 -5.857113 1.166923 4.677515 4.462387 1.545175 -5.470594 0.050118 0.000000 0.000000 0.000000 -1.226914 5.502984 3.252989 32.184459 8.066885 6.180967 -6.688892 8.387614 12.360797 0.000000 0.000000 0.000000 0.835024 6.259239 3.205226 0.655302 2.498320 -14.971034 1.991007 2.634569 1.202719 -31.901706 7.528316 -15.326069 12.239799 -39.912972 7.219682 0.000000 0.000000 0.000000 0.431109 6.208749 3.319975 -2.627875 -3.447269 26.267005 -6.956232 0.521237 -1.824457 13.467870 13.968004 28.926780 22.664526 39.717991 -2.610143 0.000000 0.000000 0.000000 
